<svg width="71" height="70" viewBox="0 0 71 70" fill="none" xmlns="http://www.w3.org/2000/svg">
<g filter="url(#filter0_i_4_38)">
<path d="M59 40.5V9.16667C59 7.26595 58.2888 5.44308 57.023 4.09907C55.7571 2.75506 54.0402 2 52.25 2H18.5C16.7098 2 14.9929 2.75506 13.727 4.09907C12.4612 5.44308 11.75 7.26595 11.75 9.16667V41.5" fill="#FFF9C6"/>
</g>
<path d="M59 40.5V9.16667C59 7.26595 58.2888 5.44308 57.023 4.09907C55.7571 2.75506 54.0402 2 52.25 2H18.5C16.7098 2 14.9929 2.75506 13.727 4.09907C12.4612 5.44308 11.75 7.26595 11.75 9.16667V41.5" stroke="#333333" stroke-width="4" stroke-linecap="round" stroke-linejoin="round"/>
<g filter="url(#filter1_d_4_38)">
<path d="M5 45C5 46.9007 5.71116 48.7236 6.97703 50.0676C8.2429 51.4116 9.95979 52.1667 11.75 52.1667H59C60.7902 52.1667 62.5071 51.4116 63.773 50.0676C65.0388 48.7236 65.75 46.9007 65.75 45V27.0834C65.75 25.1826 65.0388 23.3598 63.773 22.0158C62.5071 20.6717 60.7902 19.9167 59 19.9167C57.2098 19.9167 55.4929 20.6717 54.227 22.0158C52.9612 23.3598 52.25 25.1826 52.25 27.0834V34.25H18.5V27.0834C18.5 25.1826 17.7888 23.3598 16.523 22.0158C15.2571 20.6717 13.5402 19.9167 11.75 19.9167C9.95979 19.9167 8.2429 20.6717 6.97703 22.0158C5.71116 23.3598 5 25.1826 5 27.0834V45Z" fill="#333333"/>
<path d="M5 45C5 46.9007 5.71116 48.7236 6.97703 50.0676C8.2429 51.4116 9.95979 52.1667 11.75 52.1667H59C60.7902 52.1667 62.5071 51.4116 63.773 50.0676C65.0388 48.7236 65.75 46.9007 65.75 45V27.0834C65.75 25.1826 65.0388 23.3598 63.773 22.0158C62.5071 20.6717 60.7902 19.9167 59 19.9167C57.2098 19.9167 55.4929 20.6717 54.227 22.0158C52.9612 23.3598 52.25 25.1826 52.25 27.0834V34.25H18.5V27.0834C18.5 25.1826 17.7888 23.3598 16.523 22.0158C15.2571 20.6717 13.5402 19.9167 11.75 19.9167C9.95979 19.9167 8.2429 20.6717 6.97703 22.0158C5.71116 23.3598 5 25.1826 5 27.0834V45Z" stroke="#333333" stroke-width="2" stroke-linecap="round" stroke-linejoin="round"/>
</g>
<g filter="url(#filter2_d_4_38)">
<path d="M11.75 52.1667V59.3334" stroke="#333333" stroke-width="4" stroke-linecap="round" stroke-linejoin="round" shape-rendering="crispEdges"/>
</g>
<g filter="url(#filter3_d_4_38)">
<path d="M59 52.1667V59.3334" stroke="#333333" stroke-width="4" stroke-linecap="round" stroke-linejoin="round" shape-rendering="crispEdges"/>
</g>
<defs>
<filter id="filter0_i_4_38" x="9.75" y="0" width="55.25" height="47.5" filterUnits="userSpaceOnUse" color-interpolation-filters="sRGB">
<feFlood flood-opacity="0" result="BackgroundImageFix"/>
<feBlend mode="normal" in="SourceGraphic" in2="BackgroundImageFix" result="shape"/>
<feColorMatrix in="SourceAlpha" type="matrix" values="0 0 0 0 0 0 0 0 0 0 0 0 0 0 0 0 0 0 127 0" result="hardAlpha"/>
<feOffset dx="5" dy="4"/>
<feGaussianBlur stdDeviation="2"/>
<feComposite in2="hardAlpha" operator="arithmetic" k2="-1" k3="1"/>
<feColorMatrix type="matrix" values="0 0 0 0 0 0 0 0 0 0 0 0 0 0 0 0 0 0 0.25 0"/>
<feBlend mode="normal" in2="shape" result="effect1_innerShadow_4_38"/>
</filter>
<filter id="filter1_d_4_38" x="0" y="18.9167" width="70.75" height="42.25" filterUnits="userSpaceOnUse" color-interpolation-filters="sRGB">
<feFlood flood-opacity="0" result="BackgroundImageFix"/>
<feColorMatrix in="SourceAlpha" type="matrix" values="0 0 0 0 0 0 0 0 0 0 0 0 0 0 0 0 0 0 127 0" result="hardAlpha"/>
<feOffset dy="4"/>
<feGaussianBlur stdDeviation="2"/>
<feComposite in2="hardAlpha" operator="out"/>
<feColorMatrix type="matrix" values="0 0 0 0 0 0 0 0 0 0 0 0 0 0 0 0 0 0 0.25 0"/>
<feBlend mode="normal" in2="BackgroundImageFix" result="effect1_dropShadow_4_38"/>
<feBlend mode="normal" in="SourceGraphic" in2="effect1_dropShadow_4_38" result="shape"/>
</filter>
<filter id="filter2_d_4_38" x="5.75" y="50.1667" width="12" height="19.1667" filterUnits="userSpaceOnUse" color-interpolation-filters="sRGB">
<feFlood flood-opacity="0" result="BackgroundImageFix"/>
<feColorMatrix in="SourceAlpha" type="matrix" values="0 0 0 0 0 0 0 0 0 0 0 0 0 0 0 0 0 0 127 0" result="hardAlpha"/>
<feOffset dy="4"/>
<feGaussianBlur stdDeviation="2"/>
<feComposite in2="hardAlpha" operator="out"/>
<feColorMatrix type="matrix" values="0 0 0 0 0 0 0 0 0 0 0 0 0 0 0 0 0 0 0.25 0"/>
<feBlend mode="normal" in2="BackgroundImageFix" result="effect1_dropShadow_4_38"/>
<feBlend mode="normal" in="SourceGraphic" in2="effect1_dropShadow_4_38" result="shape"/>
</filter>
<filter id="filter3_d_4_38" x="53" y="50.1667" width="12" height="19.1667" filterUnits="userSpaceOnUse" color-interpolation-filters="sRGB">
<feFlood flood-opacity="0" result="BackgroundImageFix"/>
<feColorMatrix in="SourceAlpha" type="matrix" values="0 0 0 0 0 0 0 0 0 0 0 0 0 0 0 0 0 0 127 0" result="hardAlpha"/>
<feOffset dy="4"/>
<feGaussianBlur stdDeviation="2"/>
<feComposite in2="hardAlpha" operator="out"/>
<feColorMatrix type="matrix" values="0 0 0 0 0 0 0 0 0 0 0 0 0 0 0 0 0 0 0.25 0"/>
<feBlend mode="normal" in2="BackgroundImageFix" result="effect1_dropShadow_4_38"/>
<feBlend mode="normal" in="SourceGraphic" in2="effect1_dropShadow_4_38" result="shape"/>
</filter>
</defs>
</svg>
